<svg width="36" height="36" viewBox="0 0 36 36" fill="none" xmlns="http://www.w3.org/2000/svg">
<path d="M23.5809 15.2168C23.5809 16.3239 23.2527 17.4061 22.6376 18.3266C22.0225 19.2471 21.1483 19.9645 20.1255 20.3882C19.1027 20.8118 17.9773 20.9227 16.8915 20.7067C15.8057 20.4907 14.8083 19.9576 14.0255 19.1748C13.2427 18.392 12.7096 17.3946 12.4936 16.3088C12.2776 15.223 12.3885 14.0976 12.8121 13.0748C13.2358 12.052 13.9532 11.1778 14.8737 10.5627C15.7942 9.94765 16.8764 9.61936 17.9835 9.61936C19.468 9.61936 20.8918 10.2091 21.9415 11.2588C22.9912 12.3085 23.5809 13.7323 23.5809 15.2168ZM26.7795 15.2168C26.7797 16.5125 26.493 17.7921 25.9399 18.9638C25.3869 20.1356 24.5813 21.1703 23.5809 21.9937V29.6103C23.5809 29.8223 23.4967 30.0257 23.3467 30.1757C23.1968 30.3256 22.9934 30.4099 22.7813 30.4099C22.6573 30.4073 22.535 30.3801 22.4215 30.3299L17.9835 28.1009L13.5455 30.3299C13.423 30.3904 13.287 30.4185 13.1505 30.4115C13.014 30.4045 12.8816 30.3627 12.7659 30.2899C12.6492 30.2191 12.5529 30.1193 12.4864 30.0002C12.4198 29.8811 12.3852 29.7467 12.386 29.6103V21.9937C11.2425 21.0503 10.3559 19.8333 9.80871 18.4555C9.26149 17.0777 9.07136 15.584 9.25599 14.1131C9.44061 12.6422 9.99401 11.2418 10.8648 10.0421C11.7355 8.84229 12.8954 7.88206 14.2366 7.25057C15.5778 6.61907 17.0569 6.33681 18.5364 6.42999C20.0159 6.52318 21.4479 6.98879 22.6993 7.78357C23.9507 8.57836 24.9809 9.67653 25.6942 10.9761C26.4076 12.2756 26.7809 13.7344 26.7795 15.2168ZM25.1802 15.2168C25.1802 13.7934 24.7581 12.402 23.9674 11.2185C23.1766 10.035 22.0526 9.11261 20.7376 8.56791C19.4225 8.0232 17.9755 7.88069 16.5795 8.15837C15.1835 8.43606 13.9011 9.12148 12.8946 10.128C11.8882 11.1344 11.2027 12.4168 10.9251 13.8128C10.6474 15.2088 10.7899 16.6558 11.3346 17.9709C11.8793 19.2859 12.8017 20.4099 13.9852 21.2007C15.1687 21.9915 16.5601 22.4135 17.9835 22.4135C19.8914 22.4109 21.7203 21.6518 23.0694 20.3027C24.4185 18.9537 25.1776 17.1247 25.1802 15.2168V15.2168Z" fill="black"/>
</svg>
