<svg width="36" height="36" viewBox="0 0 36 36" fill="none" xmlns="http://www.w3.org/2000/svg">
<path d="M17.4999 7C11.7012 7 7 11.7012 7 17.4999C7 23.2986 11.7012 27.9998 17.4999 27.9998C23.2986 27.9998 27.9998 23.2986 27.9998 17.4999C27.9998 11.7012 23.2986 7 17.4999 7ZM19.2499 24.4123H15.7499V16.0124H19.2499V24.4123ZM17.4999 14.0874C17.0358 14.0874 16.5907 13.9031 16.2625 13.5749C15.9343 13.2467 15.7499 12.8016 15.7499 12.3374C15.7499 11.8733 15.9343 11.4282 16.2625 11.1C16.5907 10.7718 17.0358 10.5875 17.4999 10.5875C17.964 10.5875 18.4091 10.7718 18.7373 11.1C19.0655 11.4282 19.2499 11.8733 19.2499 12.3374C19.2499 12.8016 19.0655 13.2467 18.7373 13.5749C18.4091 13.9031 17.964 14.0874 17.4999 14.0874Z" fill="black"/>
</svg>
