<svg width="36" height="36" viewBox="0 0 36 36" fill="none" xmlns="http://www.w3.org/2000/svg">
<path d="M7.58474 13.0186C7.58474 15.8793 9.74276 18.0373 12.6034 18.0373C15.464 18.0373 17.622 15.8793 17.622 13.0186C17.622 10.158 15.464 8 12.6034 8C9.74276 8 7.58474 10.158 7.58474 13.0186ZM28.3763 12.2271H25.5085V16.5288H21.2068V19.3966H25.5085V23.6983H28.3763V19.3966H32.6779V16.5288H28.3763V12.2271ZM6.86779 28H21.2068V26.5661C21.2068 22.6128 17.9905 19.3966 14.0373 19.3966H11.1695C7.21623 19.3966 4 22.6128 4 26.5661V28H6.86779Z" fill="black"/>
</svg>
