<svg width="36" height="36" viewBox="0 0 36 36" fill="none" xmlns="http://www.w3.org/2000/svg">
<path d="M17.9061 6.1306C17.7569 6.04919 17.5765 6.04919 17.4272 6.1306L3.80474 13.5611C3.45731 13.7506 3.45731 14.2494 3.80474 14.4389L17.4272 21.8694C17.5765 21.9508 17.7569 21.9508 17.9061 21.8694L28.9272 15.8568C29.2604 15.675 29.6667 15.9161 29.6667 16.2957V25.5C29.6667 25.7761 29.8905 26 30.1667 26H31.8333C32.1095 26 32.3333 25.7761 32.3333 25.5V14.2968C32.3333 14.1138 32.2334 13.9455 32.0728 13.8579L17.9061 6.1306ZM9.07285 19.9769C8.73966 19.7951 8.33333 20.0362 8.33333 20.4158V24.6099C8.33333 24.7929 8.43324 24.9612 8.59382 25.0488L17.4272 29.8693C17.5764 29.9508 17.7569 29.9508 17.9062 29.8693L26.7395 25.0488C26.9001 24.9612 27 24.7929 27 24.6099V20.4158C27 20.0362 26.5937 19.7951 26.2605 19.9769L17.9062 24.536C17.7569 24.6174 17.5764 24.6174 17.4272 24.536L9.07285 19.9769Z" fill="black"/>
</svg>
