<svg width="36" height="36" viewBox="0 0 36 36" fill="none" xmlns="http://www.w3.org/2000/svg">
<path d="M21.7143 16.7143H30.7143V19.2857H21.7143V16.7143ZM23 21.8571H30.7143V24.4286H23V21.8571ZM20.4286 11.5714H30.7143V14.1429H20.4286V11.5714ZM7.57143 27H20.4286V25.7143C20.4286 22.1696 17.5447 19.2857 14 19.2857H11.4286C7.88386 19.2857 5 22.1696 5 25.7143V27H7.57143ZM12.7143 18C15.2793 18 17.2143 16.065 17.2143 13.5C17.2143 10.935 15.2793 9 12.7143 9C10.1493 9 8.21429 10.935 8.21429 13.5C8.21429 16.065 10.1493 18 12.7143 18Z" fill="black"/>
</svg>
