<svg width="36" height="36" viewBox="0 0 36 36" fill="none" xmlns="http://www.w3.org/2000/svg">
<path d="M7.18562 26.4949C7.39487 26.8099 7.747 27 8.125 27H25C25.45 27 25.8573 26.7322 26.0339 26.3182L29.4089 18.4432C29.4828 18.2722 29.513 18.0854 29.4968 17.8997C29.4805 17.7141 29.4183 17.5354 29.3157 17.3798C29.2131 17.2242 29.0734 17.0966 28.9092 17.0084C28.7449 16.9203 28.5614 16.8745 28.375 16.875H27.25V13.5C27.25 12.2591 26.2409 11.25 25 11.25H17.5131L14.6376 9H9.25C8.00912 9 7 10.0091 7 11.25V25.875H7.00787C7.00537 26.0945 7.06716 26.31 7.18562 26.4949ZM25 13.5V16.875H11.5C11.05 16.875 10.6428 17.1428 10.4661 17.5568L9.25 20.3951V13.5H25Z" fill="black"/>
</svg>
