<svg width="36" height="36" viewBox="0 0 36 36" fill="none" xmlns="http://www.w3.org/2000/svg">
<path fill-rule="evenodd" clip-rule="evenodd" d="M27.6667 28V8C27.6667 7.46957 27.456 6.96086 27.0809 6.58579C26.7058 6.21071 26.1971 6 25.6667 6H11C10.4696 6 9.96086 6.21071 9.58579 6.58579C9.21072 6.96086 9 7.46957 9 8V28C9 28.5304 9.21072 29.0391 9.58579 29.4142C9.96086 29.7893 10.4696 30 11 30H25.6667C26.1971 30 26.7058 29.7893 27.0809 29.4142C27.456 29.0391 27.6667 28.5304 27.6667 28ZM18.1381 11.5286C18.2631 11.6536 18.3333 11.8232 18.3333 12C18.3333 12.1768 18.2631 12.3464 18.1381 12.4714C18.013 12.5964 17.8435 12.6667 17.6667 12.6667H12.3333C12.1565 12.6667 11.987 12.5964 11.8619 12.4714C11.7369 12.3464 11.6667 12.1768 11.6667 12C11.6667 11.8232 11.7369 11.6536 11.8619 11.5286C11.987 11.4036 12.1565 11.3333 12.3333 11.3333H17.6667C17.8435 11.3333 18.013 11.4036 18.1381 11.5286ZM18.1381 14.1953C18.013 14.0702 17.8435 14 17.6667 14H12.3333C12.1565 14 11.987 14.0702 11.8619 14.1953C11.7369 14.3203 11.6667 14.4899 11.6667 14.6667C11.6667 14.8435 11.7369 15.013 11.8619 15.1381C11.987 15.2631 12.1565 15.3333 12.3333 15.3333H17.6667C17.8435 15.3333 18.013 15.2631 18.1381 15.1381C18.2631 15.013 18.3333 14.8435 18.3333 14.6667C18.3333 14.4899 18.2631 14.3203 18.1381 14.1953ZM18.1381 20.1953C18.2631 20.3203 18.3333 20.4899 18.3333 20.6667C18.3333 20.8435 18.2631 21.013 18.1381 21.1381C18.013 21.2631 17.8435 21.3333 17.6667 21.3333H12.3333C12.1565 21.3333 11.987 21.2631 11.8619 21.1381C11.7369 21.013 11.6667 20.8435 11.6667 20.6667C11.6667 20.4899 11.7369 20.3203 11.8619 20.1953C11.987 20.0702 12.1565 20 12.3333 20H17.6667C17.8435 20 18.013 20.0702 18.1381 20.1953ZM18.1381 22.8619C18.013 22.7369 17.8435 22.6667 17.6667 22.6667H12.3333C12.1565 22.6667 11.987 22.7369 11.8619 22.8619C11.7369 22.987 11.6667 23.1565 11.6667 23.3333C11.6667 23.5101 11.7369 23.6797 11.8619 23.8047C11.987 23.9298 12.1565 24 12.3333 24H17.6667C17.8435 24 18.013 23.9298 18.1381 23.8047C18.2631 23.6797 18.3333 23.5101 18.3333 23.3333C18.3333 23.1565 18.2631 22.987 18.1381 22.8619ZM21.4073 11.1478C21.7198 10.8398 22.1437 10.6667 22.5858 10.6667C23.0278 10.6667 23.4517 10.8398 23.7643 11.1478C24.0768 11.4559 24.2524 11.8738 24.2524 12.3095V12.9048C24.2524 13.1809 24.0286 13.4048 23.7524 13.4048H21.4191C21.143 13.4048 20.9191 13.1809 20.9191 12.9048V12.3095C20.9191 11.8738 21.0947 11.4559 21.4073 11.1478ZM23.7524 14.5C24.0286 14.5 24.2524 14.7239 24.2524 15V23.3825C24.2524 23.4824 24.2225 23.5799 24.1666 23.6626L22.9999 25.3876C22.8017 25.6808 22.3699 25.6808 22.1716 25.3876L21.0049 23.6626C20.949 23.5799 20.9191 23.4824 20.9191 23.3825V15C20.9191 14.7239 21.143 14.5 21.4191 14.5H23.7524Z" fill="black"/>
</svg>
