<svg width="36" height="36" viewBox="0 0 36 36" fill="none" xmlns="http://www.w3.org/2000/svg">
<path fill-rule="evenodd" clip-rule="evenodd" d="M23.2728 19.0908C20.2604 19.0908 17.8182 21.533 17.8182 24.5454C17.8182 27.5578 20.2604 29.9999 23.2728 29.9999C26.2852 29.9999 28.7273 27.5578 28.7273 24.5454C28.7273 21.533 26.2852 19.0908 23.2728 19.0908ZM25.6371 23.6231C25.6806 23.5733 25.7138 23.5153 25.7346 23.4526C25.7554 23.3898 25.7634 23.3235 25.7582 23.2576C25.753 23.1917 25.7347 23.1275 25.7043 23.0687C25.6739 23.01 25.6321 22.9579 25.5813 22.9156C25.5305 22.8733 25.4718 22.8415 25.4085 22.8223C25.3453 22.803 25.2788 22.7965 25.2131 22.8033C25.1473 22.8101 25.0835 22.8299 25.0255 22.8617C24.9676 22.8935 24.9165 22.9365 24.8754 22.9883L22.7432 25.5465L21.6399 24.4427C21.5464 24.3524 21.4211 24.3024 21.2911 24.3035C21.1611 24.3047 21.0367 24.3568 20.9448 24.4488C20.8528 24.5407 20.8007 24.6651 20.7996 24.7951C20.7984 24.9251 20.8484 25.0504 20.9387 25.1439L22.4263 26.6315C22.4751 26.6802 22.5334 26.7182 22.5976 26.7431C22.6618 26.768 22.7306 26.7792 22.7994 26.7761C22.8682 26.773 22.9356 26.7555 22.9973 26.7249C23.059 26.6943 23.1136 26.6512 23.1577 26.5983L25.6371 23.6231Z" fill="black"/>
<path fill-rule="evenodd" clip-rule="evenodd" d="M23.3583 13.0518C22.7016 14.2032 21.7572 15.1644 20.6175 15.8411C20.2313 16.068 20 16.4356 20 16.8229V16.9953C20 17.3815 20.2313 17.7491 20.6185 17.9782C20.8101 18.0919 20.9961 18.2137 21.1761 18.343C20.3925 18.6078 19.6754 19.0169 19.0564 19.5387C18.5542 19.1239 18.1954 18.5893 17.9993 18H15.4553C15.1939 18.7813 14.6573 19.4409 13.9455 19.8556C13.1321 20.3391 12.4582 21.0255 11.9897 21.8476C11.5212 22.6696 11.2742 23.5993 11.2727 24.5455V25.6364H16.8178C16.9492 26.4196 17.2196 27.1556 17.6029 27.8182H8V25.6364H9.09091V24.5455C9.09312 23.22 9.43953 21.9177 10.0962 20.7663C10.7529 19.6149 11.6974 18.6538 12.8371 17.9771C13.2233 17.748 13.4545 17.3815 13.4545 16.9953V16.8229C13.4545 16.4356 13.2233 16.068 12.8371 15.8411C11.6974 15.1644 10.7529 14.2032 10.0962 13.0518C9.43953 11.9004 9.09312 10.5982 9.09091 9.27273V8.18182H8V6H25.4545V8.18182H24.3636V9.27273C24.3614 10.5982 24.015 11.9004 23.3583 13.0518Z" fill="black"/>
</svg>
