<svg width="36" height="36" viewBox="0 0 36 36" fill="none" xmlns="http://www.w3.org/2000/svg">
<path d="M25.8524 18.9834C22.8104 18.9834 20.3442 21.4496 20.3442 24.4916C20.3442 27.5336 22.8104 29.9998 25.8524 29.9998C28.8944 29.9998 31.3606 27.5336 31.3606 24.4916C31.3606 21.4496 28.8944 18.9834 25.8524 18.9834ZM26.7705 28.1178H24.9344V23.7113H26.7705V28.1178ZM25.8524 22.7014C25.609 22.7014 25.3755 22.6047 25.2033 22.4325C25.0311 22.2604 24.9344 22.0269 24.9344 21.7834C24.9344 21.5399 25.0311 21.3064 25.2033 21.1343C25.3755 20.9621 25.609 20.8654 25.8524 20.8654C26.0959 20.8654 26.3294 20.9621 26.5016 21.1343C26.6737 21.3064 26.7705 21.5399 26.7705 21.7834C26.7705 22.0269 26.6737 22.2604 26.5016 22.4325C26.3294 22.6047 26.0959 22.7014 25.8524 22.7014Z" fill="black"/>
<path fill-rule="evenodd" clip-rule="evenodd" d="M20.0542 28.0328H8.14754H5V26.459C5 22.1201 8.52997 18.5902 12.8689 18.5902H16.0164C17.7292 18.5902 19.3159 19.1402 20.6092 20.073C19.7006 21.3108 19.1639 22.8387 19.1639 24.4918C19.1639 25.7729 19.4862 26.9788 20.0542 28.0328ZM19.9508 11.5082C19.9508 14.6479 17.5823 17.0164 14.4426 17.0164C11.303 17.0164 8.93443 14.6479 8.93443 11.5082C8.93443 8.36852 11.303 6 14.4426 6C17.5823 6 19.9508 8.36852 19.9508 11.5082Z" fill="black"/>
</svg>
