<svg width="36" height="36" viewBox="0 0 36 36" fill="none" xmlns="http://www.w3.org/2000/svg">
<path d="M12 6C11.2044 6 10.4413 6.31607 9.87868 6.87868C9.31607 7.44129 9 8.20435 9 9V27C9 27.7956 9.31607 28.5587 9.87868 29.1213C10.4413 29.6839 11.2044 30 12 30H26.25C26.4489 30 26.6397 29.921 26.7803 29.7803C26.921 29.6397 27 29.4489 27 29.25C27 29.0511 26.921 28.8603 26.7803 28.7197C26.6397 28.579 26.4489 28.5 26.25 28.5H12C11.6022 28.5 11.2206 28.342 10.9393 28.0607C10.658 27.7794 10.5 27.3978 10.5 27H25.5C25.8978 27 26.2794 26.842 26.5607 26.5607C26.842 26.2794 27 25.8978 27 25.5V9C27 8.20435 26.6839 7.44129 26.1213 6.87868C25.5587 6.31607 24.7956 6 24 6H12ZM13.125 9.75H22.875C23.1734 9.75 23.4595 9.86853 23.6705 10.0795C23.8815 10.2905 24 10.5766 24 10.875C24 11.1734 23.8815 11.4595 23.6705 11.6705C23.4595 11.8815 23.1734 12 22.875 12H13.125C12.8266 12 12.5405 11.8815 12.3295 11.6705C12.1185 11.4595 12 11.1734 12 10.875C12 10.5766 12.1185 10.2905 12.3295 10.0795C12.5405 9.86853 12.8266 9.75 13.125 9.75Z" fill="black"/>
</svg>
