<svg width="36" height="36" viewBox="0 0 36 36" fill="none" xmlns="http://www.w3.org/2000/svg">
<path d="M28.5856 26.0057L23.8209 29.3236C23.1967 29.76 22.4243 30.0001 21.6167 30.0001H9.37874C9.07018 30.0001 8.84619 29.7585 8.84619 29.4669V26.2664C8.84619 25.9747 9.10188 25.7323 9.37874 25.7323L11.3315 25.7331L12.9715 24.4747C13.6804 23.9379 14.6333 23.5995 15.5855 23.5995H21.1966C21.8843 23.5995 22.4264 24.1786 22.3118 24.8455C22.2192 25.3706 21.6992 25.7331 21.1349 25.7331H18.4073C18.0987 25.7331 17.8748 25.9748 17.8748 26.2365C17.8748 26.4983 18.1304 26.74 18.4073 26.74H22.6606L26.8822 23.8002C27.5099 23.3604 28.392 23.4887 28.8547 24.0825C29.3474 24.7353 29.2134 25.5689 28.5856 26.0057Z" fill="black"/>
<path d="M23.0744 14.5263C23.7922 14.1901 24.6985 14.1678 25.4591 14.6069C26.673 15.3077 27.0885 16.8585 26.3877 18.0723C25.6869 19.2861 24.1362 19.7016 22.9223 19.0008C22.6917 18.8676 22.4871 18.7019 22.3164 18.5155L16.5093 20.494C16.4806 20.8546 16.371 21.2156 16.1774 21.551C15.4769 22.7642 13.9258 23.1803 12.712 22.4795C11.4982 21.7787 11.083 20.2274 11.7835 19.0141C12.1307 18.4127 12.6863 18.0085 13.3089 17.8371L14.2024 11.623C13.0411 10.9049 12.6539 9.38879 13.342 8.19696C14.0428 6.98315 15.5941 6.56795 16.8073 7.26842C17.8481 7.86933 18.3017 9.09417 17.9699 10.1952L23.0744 14.5263V14.5263ZM15.8547 18.5709L21.6619 16.5924C21.678 16.4186 21.7082 16.2457 21.7597 16.0741L16.6553 11.7429C16.5118 11.8139 16.3637 11.8675 16.2105 11.9109L15.3032 18.15C15.5187 18.2524 15.7001 18.4011 15.8547 18.5709V18.5709Z" fill="black"/>
</svg>
