<svg width="36" height="36" viewBox="0 0 36 36" fill="none" xmlns="http://www.w3.org/2000/svg">
<path d="M14.0639 14.4187C14.0639 16.821 15.8762 18.6333 18.2785 18.6333C20.6808 18.6333 22.4931 16.821 22.4931 14.4187C22.4931 12.0164 20.6808 10.2041 18.2785 10.2041C15.8762 10.2041 14.0639 12.0164 14.0639 14.4187ZM13.4618 26.9999H25.0036C25.2797 26.9999 25.5036 26.7761 25.5036 26.4999V25.7958C25.5036 22.4758 22.8026 19.7749 19.4827 19.7749H17.0743C13.7544 19.7749 11.0535 22.4758 11.0535 25.7958V26.4999C11.0535 26.7761 11.2773 26.9999 11.5535 26.9999H13.4618Z" fill="black"/>
<path fill-rule="evenodd" clip-rule="evenodd" d="M13.8622 10.7285C13.9909 10.9293 13.9265 11.1881 13.753 11.3517C12.9379 12.1202 12.4291 13.21 12.4291 14.4187C12.4291 14.9039 12.5111 15.3699 12.6619 15.8037C12.7425 16.0354 12.6743 16.3026 12.4569 16.4163C11.9173 16.6988 11.2953 16.8563 10.623 16.8563C8.42083 16.8563 6.75957 15.1672 6.75957 12.9282C6.75957 10.6891 8.42083 9 10.623 9C12.0113 9 13.1846 9.67132 13.8622 10.7285ZM4 23.5319V24.1543C4 24.4304 4.22386 24.6543 4.5 24.6543H8.31654C8.59267 24.6543 8.81383 24.4297 8.84216 24.155C9.07748 21.8736 10.9097 19.9488 13.44 19.0995C13.8701 18.9551 13.9587 18.379 13.5309 18.2281C12.9653 18.0287 12.3583 17.9203 11.7268 17.9203H9.51913C6.47588 17.9203 4 20.4377 4 23.5319Z" fill="black"/>
<path fill-rule="evenodd" clip-rule="evenodd" d="M22.7242 10.7286C22.5955 10.9293 22.6599 11.1881 22.8334 11.3517C23.6485 12.1202 24.1573 13.2101 24.1573 14.4187C24.1573 14.9039 24.0753 15.3699 23.9245 15.8036C23.8439 16.0353 23.9121 16.3025 24.1294 16.4163C24.6691 16.6988 25.2911 16.8563 25.9635 16.8563C28.1656 16.8563 29.8269 15.1672 29.8269 12.9282C29.8269 10.6891 28.1656 9 25.9635 9C24.5752 9 23.4018 9.67134 22.7242 10.7286ZM32.5864 23.5319V24.1543C32.5864 24.4304 32.3626 24.6543 32.0864 24.6543H28.1222C27.8755 24.6543 27.6676 24.4735 27.6142 24.2326C27.1001 21.9137 25.3574 20.0093 23.0521 19.1408C22.6348 18.9837 22.5514 18.4147 22.9694 18.2593C23.5593 18.04 24.196 17.9203 24.8596 17.9203H27.0673C30.1105 17.9203 32.5864 20.4377 32.5864 23.5319Z" fill="black"/>
</svg>
