<svg width="36" height="36" viewBox="0 0 36 36" fill="none" xmlns="http://www.w3.org/2000/svg">
<path fill-rule="evenodd" clip-rule="evenodd" d="M14.4955 8H28.7388C29.0086 8 29.2674 8.12459 29.4582 8.34637C29.649 8.56815 29.7561 8.86895 29.7561 9.18259V22.1911C29.7561 22.5047 29.649 22.8055 29.4582 23.0273C29.2674 23.2491 29.0086 23.3737 28.7388 23.3737H17.4208C16.9198 20.7552 15.0322 19.4468 13.4784 19.4099L13.4781 19.4099V18.4312C14.3101 17.8676 14.8349 16.9175 14.8349 15.7926C14.8349 14.5549 14.3422 13.4243 13.4781 12.7678V9.18259C13.4781 8.86895 13.5853 8.56815 13.7761 8.34637C13.9669 8.12459 14.2257 8 14.4955 8ZM23.5285 19.6746C23.7153 19.998 24.1778 20.01 24.381 19.6967L28.1726 13.8504C28.3078 13.6419 28.2694 13.3658 28.0824 13.2021L27.9776 13.1104C27.7485 12.9099 27.3949 12.9589 27.229 13.2143L24.4269 17.5277C24.2235 17.8407 23.7613 17.8286 23.5746 17.5053L20.754 12.6215C20.5624 12.2898 20.0844 12.2878 19.8901 12.6179L17.1365 17.2959C16.9978 17.5316 16.6955 17.6121 16.458 17.4767L16.1739 17.3147C15.9184 17.169 15.5928 17.2744 15.4711 17.5422L15.3359 17.8397C15.2375 18.0561 15.3051 18.3119 15.4976 18.4515L16.6544 19.29C16.8933 19.4632 17.2294 19.3929 17.3789 19.1385L19.8902 14.8658C20.0843 14.5355 20.5626 14.5373 20.7542 14.8692L23.5285 19.6746Z" fill="black"/>
<path d="M6.44924 15.839C6.44924 17.7792 7.92367 19.2428 9.87816 19.2428C11.8327 19.2428 13.3071 17.7792 13.3071 15.839C13.3071 13.8987 11.8327 12.4351 9.87816 12.4351C7.92367 12.4351 6.44924 13.8987 6.44924 15.839ZM5.95939 26.0001H15.7563V25.0275C15.7563 22.3462 13.5589 20.1648 10.8579 20.1648H8.89847C6.19745 20.1648 4 22.3462 4 25.0275V26.0001H5.95939Z" fill="black"/>
</svg>
