<svg width="36" height="36" viewBox="0 0 36 36" fill="none" xmlns="http://www.w3.org/2000/svg">
<path d="M25.9474 12.2105H22.7895V10.1053C22.7895 8.94421 21.8453 8 20.6842 8H14.3684C13.2074 8 12.2632 8.94421 12.2632 10.1053V12.2105H9.10526C7.94421 12.2105 7 13.1547 7 14.3158V17.4737H28.0526V14.3158C28.0526 13.1547 27.1084 12.2105 25.9474 12.2105ZM14.3684 10.1053H20.6842V12.2105H14.3684V10.1053ZM19.6316 20.6316H15.4211V18.5263H7V25.8947C7 27.0558 7.94421 28 9.10526 28H25.9474C27.1084 28 28.0526 27.0558 28.0526 25.8947V18.5263H19.6316V20.6316Z" fill="black"/>
</svg>
